<mxfile host="app.diagrams.net" modified="2024-02-04T20:34:00.000Z" agent="Mozilla/5.0" version="21.6.6" etag="your-etag">
  <diagram name="Class Diagram" id="class-diagram">
    <mxGraphModel dx="1422" dy="762" grid="1" gridSize="10" guides="1" tooltips="1" connect="1" arrows="1" fold="1" page="1" pageScale="1" pageWidth="850" pageHeight="1100">
      <root>
        <mxCell id="0"/>
        <mxCell id="1" parent="0"/>
        
        <!-- Task Class -->
        <mxCell id="task" value="Task" style="swimlane;fontStyle=1;align=center;verticalAlign=top;childLayout=stackLayout;horizontal=1;startSize=26;horizontalStack=0;resizeParent=1;resizeParentMax=0;resizeLast=0;collapsible=1;marginBottom=0;fillColor=#dae8fc;strokeColor=#6c8ebf;" vertex="1" parent="1">
          <mxGeometry x="280" y="160" width="240" height="220" as="geometry"/>
        </mxCell>
        
        <!-- Task Attributes -->
        <mxCell id="task-attrs" value="- id: Integer (PK)&#xa;- title: String&#xa;- description: String&#xa;- status: TaskStatus&#xa;- priority: Priority&#xa;- created_at: DateTime&#xa;- updated_at: DateTime" style="text;strokeColor=none;fillColor=none;align=left;verticalAlign=top;spacingLeft=4;spacingRight=4;overflow=hidden;rotatable=0;points=[[0,0.5],[1,0.5]];portConstraint=eastwest;" vertex="1" parent="task">
          <mxGeometry y="26" width="240" height="114" as="geometry"/>
        </mxCell>
        
        <!-- Task Methods -->
        <mxCell id="task-methods" value="+ __init__()&#xa;+ __repr__()&#xa;+ to_dict()" style="text;strokeColor=none;fillColor=none;align=left;verticalAlign=top;spacingLeft=4;spacingRight=4;overflow=hidden;rotatable=0;points=[[0,0.5],[1,0.5]];portConstraint=eastwest;" vertex="1" parent="task">
          <mxGeometry y="140" width="240" height="80" as="geometry"/>
        </mxCell>
        
        <!-- TaskStatus Enum -->
        <mxCell id="taskstatus" value="&lt;&lt;enumeration&gt;&gt;&#xa;TaskStatus" style="swimlane;fontStyle=1;align=center;verticalAlign=top;childLayout=stackLayout;horizontal=1;startSize=40;horizontalStack=0;resizeParent=1;resizeParentMax=0;resizeLast=0;collapsible=1;marginBottom=0;fillColor=#d5e8d4;strokeColor=#82b366;" vertex="1" parent="1">
          <mxGeometry x="40" y="160" width="160" height="120" as="geometry"/>
        </mxCell>
        
        <!-- TaskStatus Values -->
        <mxCell id="taskstatus-values" value="TODO&#xa;IN_PROGRESS&#xa;DONE" style="text;strokeColor=none;fillColor=none;align=left;verticalAlign=top;spacingLeft=4;spacingRight=4;overflow=hidden;rotatable=0;points=[[0,0.5],[1,0.5]];portConstraint=eastwest;" vertex="1" parent="taskstatus">
          <mxGeometry y="40" width="160" height="80" as="geometry"/>
        </mxCell>
        
        <!-- Priority Enum -->
        <mxCell id="priority" value="&lt;&lt;enumeration&gt;&gt;&#xa;Priority" style="swimlane;fontStyle=1;align=center;verticalAlign=top;childLayout=stackLayout;horizontal=1;startSize=40;horizontalStack=0;resizeParent=1;resizeParentMax=0;resizeLast=0;collapsible=1;marginBottom=0;fillColor=#ffe6cc;strokeColor=#d79b00;" vertex="1" parent="1">
          <mxGeometry x="600" y="160" width="160" height="120" as="geometry"/>
        </mxCell>
        
        <!-- Priority Values -->
        <mxCell id="priority-values" value="LOW&#xa;MEDIUM&#xa;HIGH" style="text;strokeColor=none;fillColor=none;align=left;verticalAlign=top;spacingLeft=4;spacingRight=4;overflow=hidden;rotatable=0;points=[[0,0.5],[1,0.5]];portConstraint=eastwest;" vertex="1" parent="priority">
          <mxGeometry y="40" width="160" height="80" as="geometry"/>
        </mxCell>
        
        <!-- Relationships -->
        <mxCell id="task-taskstatus" value="" style="endArrow=block;endFill=1;html=1;edgeStyle=orthogonalEdgeStyle;align=left;verticalAlign=top;exitX=0;exitY=0.5;exitDx=0;exitDy=0;entryX=1;entryY=0.5;entryDx=0;entryDy=0;" edge="1" parent="1" source="task-attrs" target="taskstatus">
          <mxGeometry x="-1" relative="1" as="geometry"/>
        </mxCell>
        
        <mxCell id="task-priority" value="" style="endArrow=block;endFill=1;html=1;edgeStyle=orthogonalEdgeStyle;align=left;verticalAlign=top;exitX=1;exitY=0.5;exitDx=0;exitDy=0;entryX=0;entryY=0.5;entryDx=0;entryDy=0;" edge="1" parent="1" source="task-attrs" target="priority">
          <mxGeometry x="-1" relative="1" as="geometry"/>
        </mxCell>
      </root>
    </mxGraphModel>
  </diagram>
</mxfile>
